# xmcd CD database file
#
# Track frame offsets:
#	150
#	12958
#	26845
#	40810
#	61348
#	83785
#	99310
#	115858
#	130600
#	149548
#	165543
#	178138
#	198415
#	217585
#
# Disc length: 3207 seconds
#
# Revision: 0
# Processed by: cddbd v1.5.2PL0 Copyright (c) Steve Scherf et al.
# Submitted via: CDex 1.70beta2
#
DISCID=b60c850e
DTITLE=Michael Buble - Call me irresponsible
DYEAR=2007
DGENRE=Jazz
TTITLE0=L O V E
TTITLE1=The best is yet to come
TTITLE2=It had better be tonight
TTITLE3=Me and Mrs. Jones
TTITLE4=I'm your man
TTITLE5=Comin' home baby (feat Boyz II Men)
TTITLE6=Lost
TTITLE7=Call me irresponsible
TTITLE8=Wonderful tonight
TTITLE9=Everything
TTITLE10=I've got the world on a string
TTITLE11=Always on my mind
TTITLE12=That's life
TTITLE13=Dream
EXTD=YEAR: 2007
EXTT0=
EXTT1=
EXTT2=
EXTT3=
EXTT4=
EXTT5=
EXTT6=
EXTT7=
EXTT8=
EXTT9=
EXTT10=
EXTT11=
EXTT12=
EXTT13=
PLAYORDER=
